<?xml version="1.0" encoding="utf-8"?>
<!-- Generator: Adobe Illustrator 21.0.0, SVG Export Plug-In . SVG Version: 6.00 Build 0)  -->
<svg version="1.1" id="Layer_1" xmlns="http://www.w3.org/2000/svg" xmlns:xlink="http://www.w3.org/1999/xlink" x="0px" y="0px"
	 viewBox="0 0 32 32" style="enable-background:new 0 0 32 32;" xml:space="preserve">
<style type="text/css">
	.st0{fill:#555555;}
</style>
<g id="surface1">
	<path class="st0" d="M16,6.5c-11.4,0-15.8,9.1-15.8,9.1L0,16l0.2,0.4c0,0,4.4,9.1,15.8,9.1s15.8-9.1,15.8-9.1L32,16l-0.2-0.4
		C31.8,15.6,27.4,6.5,16,6.5z M16,8.6c4.1,0,7.4,3.3,7.4,7.4s-3.3,7.4-7.4,7.4S8.6,20.1,8.6,16S11.9,8.6,16,8.6z M8.5,10.2
		c-1.2,1.6-2,3.6-2,5.8s0.8,4.2,2,5.8c-4.1-2-5.7-5.2-6-5.8C2.7,15.5,4.4,12.3,8.5,10.2z M23.5,10.2c4.1,2,5.7,5.2,6,5.8
		c-0.3,0.5-1.9,3.7-6,5.8c1.2-1.6,2-3.6,2-5.8S24.8,11.8,23.5,10.2z M16,12.8c-1.8,0-3.2,1.4-3.2,3.2s1.4,3.2,3.2,3.2
		s3.2-1.4,3.2-3.2S17.8,12.8,16,12.8z"/>
</g>
</svg>
