<?xml version="1.0" encoding="utf-8"?>
<!-- Generator: Adobe Illustrator 21.0.0, SVG Export Plug-In . SVG Version: 6.00 Build 0)  -->
<svg version="1.1" id="Layer_1" xmlns="http://www.w3.org/2000/svg" xmlns:xlink="http://www.w3.org/1999/xlink" x="0px" y="0px"
	 viewBox="0 0 100 100" style="enable-background:new 0 0 100 100;" xml:space="preserve">
<style type="text/css">
	.st0{fill:#FFFFFF;}
</style>
<g id="surface1">
	<path class="st0" d="M50,23.9c-27.2,0-48.1,23.9-48.1,23.9L0,50l1.9,2.1c0,0,19.1,21.7,44.4,23.7c1.2,0.2,2.4,0.2,3.7,0.2
		c1.2,0,2.5-0.1,3.7-0.2c25.3-2,44.4-23.7,44.4-23.7L100,50l-1.9-2.1C98.1,47.9,77.2,23.9,50,23.9z M50,30.4c7.2,0,13.8,2,19.6,4.6
		c2.1,3.4,3.3,7.4,3.3,11.7c0,11.8-8.8,21.4-20.3,22.7c-0.1,0-0.1,0-0.2,0c-0.8,0-1.6,0.1-2.3,0.1c-0.9,0-1.7-0.1-2.5-0.1
		C36,68.2,27.2,58.5,27.2,46.7c0-4.3,1.1-8.2,3.2-11.6h-0.1C36,32.5,42.7,30.4,50,30.4z M50,37c-5.4,0-9.8,4.4-9.8,9.8
		s4.4,9.8,9.8,9.8s9.8-4.4,9.8-9.8S55.4,37,50,37z M21.5,40c-0.5,2.2-0.8,4.4-0.8,6.7c0,5.7,1.6,11.1,4.5,15.6
		C16.9,57.6,11.2,51.9,9.4,50C10.9,48.4,15.3,44.1,21.5,40z M78.5,40c6.2,4.1,10.6,8.4,12.1,10c-1.9,1.9-7.6,7.6-15.8,12.3
		c2.9-4.5,4.5-9.9,4.5-15.6C79.3,44.4,79,42.2,78.5,40z"/>
</g>
</svg>
