<?xml version="1.0" encoding="utf-8"?>
<!-- Generator: Adobe Illustrator 21.0.0, SVG Export Plug-In . SVG Version: 6.00 Build 0)  -->
<svg version="1.1" id="Layer_1" xmlns="http://www.w3.org/2000/svg" xmlns:xlink="http://www.w3.org/1999/xlink" x="0px" y="0px"
	 viewBox="0 0 32 32" style="enable-background:new 0 0 32 32;" xml:space="preserve">
<style type="text/css">
	.st0{fill:#555555;}
</style>
<g id="surface1">
	<path class="st0" d="M16,0C9.6,0,4,3.8,1.5,9.3h3c1.4-2.5,3.6-4.4,6.3-5.6C9.9,5.3,9.1,7.2,8.7,9.3h2.8c1-4.1,2.8-6.7,4.5-6.7
		s3.5,2.6,4.5,6.7h2.8c-0.5-2.2-1.2-4.1-2.1-5.6c2.6,1.1,4.9,3.1,6.3,5.6h3C28,3.8,22.4,0,16,0z M0,12l2,8h2c0,0,1.4-4.8,1.4-5.2
		l0,0c0,0.3,1.4,5.2,1.4,5.2h1.9l2-8H9c0,0-1.2,4.8-1.2,5.1l0,0c0-0.4-1.3-5.1-1.3-5.1H4.6c0,0-1.5,4.8-1.5,5.1
		C3,16.7,1.9,12,1.9,12H0z M10.7,12l2,8h2c0,0,1.4-4.8,1.4-5.2l0,0c0,0.3,1.4,5.2,1.4,5.2h1.9l2-8h-1.7c0,0-1.2,4.8-1.2,5.1l0,0
		c0-0.4-1.3-5.1-1.3-5.1h-1.8c0,0-1.5,4.8-1.5,5.1c0-0.4-1.2-5.1-1.2-5.1H10.7z M21.3,12l2,8h2c0,0,1.4-4.8,1.4-5.2l0,0
		c0,0.3,1.4,5.2,1.4,5.2H30l2-8h-1.7c0,0-1.2,4.8-1.2,5.1l0,0c0-0.4-1.3-5.1-1.3-5.1H26c0,0-1.5,4.8-1.5,5.1c0-0.4-1.2-5.1-1.2-5.1
		H21.3z M1.5,22.7C4,28.2,9.6,32,16,32s12-3.8,14.5-9.3h-3c-1.4,2.5-3.6,4.4-6.3,5.6c0.9-1.5,1.6-3.4,2.1-5.6h-2.8
		c-1,4.1-2.8,6.7-4.5,6.7s-3.5-2.6-4.5-6.7H8.7c0.5,2.2,1.2,4.1,2.1,5.6c-2.6-1.1-4.9-3.1-6.3-5.6H1.5z"/>
</g>
</svg>
