<?xml version="1.0" encoding="utf-8"?>
<!-- Generator: Adobe Illustrator 21.0.0, SVG Export Plug-In . SVG Version: 6.00 Build 0)  -->
<svg version="1.1" id="Layer_1" xmlns="http://www.w3.org/2000/svg" xmlns:xlink="http://www.w3.org/1999/xlink" x="0px" y="0px"
	 viewBox="0 0 240 80" style="enable-background:new 0 0 240 80;" xml:space="preserve">
<style type="text/css">
	.st0{fill:#FFFFFF;}
</style>
<g>
	<path class="st0" d="M15.9,52.9c-1.7,0-3.2-0.3-4.6-0.9s-2.5-1.6-3.5-2.8H7.5c0.2,1.5,0.3,2.9,0.3,4.3V64H3.9V26.8h3.2l0.5,3.5h0.2
		c1-1.4,2.2-2.4,3.5-3s2.9-0.9,4.6-0.9c3.4,0,6,1.2,7.9,3.5s2.8,5.6,2.8,9.8c0,4.2-0.9,7.5-2.8,9.8S19.2,52.9,15.9,52.9z M15.3,29.6
		c-2.6,0-4.5,0.7-5.7,2.2s-1.8,3.8-1.8,6.9v0.9c0,3.6,0.6,6.2,1.8,7.7s3.1,2.3,5.8,2.3c2.2,0,4-0.9,5.2-2.7s1.9-4.3,1.9-7.4
		c0-3.2-0.6-5.7-1.9-7.4S17.6,29.6,15.3,29.6z"/>
	<path class="st0" d="M50.9,52.5V35.9c0-2.1-0.5-3.7-1.4-4.7S47,29.6,45,29.6c-2.7,0-4.7,0.7-5.9,2.2s-1.9,3.9-1.9,7.2v13.4h-3.9V16
		h3.9v11c0,1.3-0.1,2.4-0.2,3.3h0.2c0.8-1.2,1.9-2.2,3.3-2.9s3-1.1,4.8-1.1c3.1,0,5.5,0.7,7.1,2.2s2.4,3.9,2.4,7.1v16.8H50.9z"/>
	<path class="st0" d="M74.7,52.9c-1.7,0-3.2-0.3-4.6-0.9s-2.5-1.6-3.5-2.8h-0.3c0.2,1.5,0.3,2.9,0.3,4.3V64h-3.9V26.8H66l0.5,3.5
		h0.2c1-1.4,2.2-2.4,3.5-3s2.9-0.9,4.6-0.9c3.4,0,6,1.2,7.9,3.5s2.8,5.6,2.8,9.8c0,4.2-0.9,7.5-2.8,9.8S78.1,52.9,74.7,52.9z
		 M74.2,29.6c-2.6,0-4.5,0.7-5.7,2.2s-1.8,3.8-1.8,6.9v0.9c0,3.6,0.6,6.2,1.8,7.7s3.1,2.3,5.8,2.3c2.2,0,4-0.9,5.2-2.7
		s1.9-4.3,1.9-7.4c0-3.2-0.6-5.7-1.9-7.4S76.5,29.6,74.2,29.6z"/>
	<path class="st0" d="M112.1,43.4c0,3-1.1,5.4-3.3,7.1s-5.2,2.5-8.9,2.5c-4.1,0-7.2-0.5-9.4-1.6v-3.8c1.4,0.6,2.9,1.1,4.6,1.4
		s3.3,0.5,4.9,0.5c2.7,0,4.7-0.5,6-1.5s2-2.4,2-4.2c0-1.2-0.2-2.2-0.7-2.9s-1.3-1.5-2.4-2.1s-2.8-1.4-5.1-2.2
		c-3.2-1.1-5.5-2.5-6.8-4.1S91,28.9,91,26.4c0-2.6,1-4.7,3-6.3s4.6-2.3,7.9-2.3c3.4,0,6.5,0.6,9.4,1.9l-1.2,3.5
		c-2.8-1.2-5.6-1.8-8.3-1.8c-2.1,0-3.8,0.5-4.9,1.4S95,24.8,95,26.4c0,1.2,0.2,2.2,0.7,2.9s1.2,1.5,2.2,2.1s2.6,1.3,4.8,2.1
		c3.6,1.3,6.1,2.7,7.4,4.1S112.1,41,112.1,43.4z"/>
	<path class="st0" d="M129.4,52.9c-3.8,0-6.8-1.2-9-3.5s-3.3-5.5-3.3-9.6c0-4.1,1-7.4,3.1-9.9s4.8-3.7,8.2-3.7
		c3.2,0,5.8,1.1,7.6,3.2s2.8,4.9,2.8,8.4v2.5h-17.7c0.1,3,0.8,5.3,2.3,6.9s3.5,2.3,6.1,2.3c2.8,0,5.5-0.6,8.2-1.7v3.5
		c-1.4,0.6-2.7,1-3.9,1.3S131.1,52.9,129.4,52.9z M128.3,29.6c-2.1,0-3.7,0.7-4.9,2s-1.9,3.2-2.2,5.6h13.4c0-2.5-0.5-4.3-1.6-5.6
		S130.4,29.6,128.3,29.6z"/>
	<path class="st0" d="M161.3,52.5l-0.8-3.7h-0.2c-1.3,1.6-2.6,2.7-3.8,3.3s-2.9,0.9-4.8,0.9c-2.5,0-4.5-0.7-6-2s-2.2-3.2-2.2-5.6
		c0-5.2,4.1-7.9,12.4-8.2l4.4-0.1v-1.6c0-2-0.4-3.5-1.3-4.5s-2.3-1.4-4.2-1.4c-2.1,0-4.6,0.7-7.3,2l-1.2-3c1.3-0.7,2.7-1.2,4.2-1.6
		s3-0.6,4.5-0.6c3.1,0,5.3,0.7,6.8,2s2.2,3.5,2.2,6.5v17.5H161.3z M152.5,49.7c2.4,0,4.3-0.7,5.7-2s2.1-3.2,2.1-5.6v-2.3l-3.9,0.2
		c-3.1,0.1-5.3,0.6-6.7,1.4s-2.1,2.2-2.1,4c0,1.4,0.4,2.5,1.3,3.2S151,49.7,152.5,49.7z"/>
	<path class="st0" d="M183.9,26.3c1.1,0,2.2,0.1,3.1,0.3l-0.5,3.6c-1.1-0.2-2-0.4-2.8-0.4c-2.1,0-3.9,0.8-5.3,2.5s-2.2,3.8-2.2,6.3
		v13.8h-3.9V26.8h3.2l0.4,4.8h0.2c1-1.7,2.1-3,3.4-3.9S182.3,26.3,183.9,26.3z"/>
	<path class="st0" d="M202,52.9c-3.7,0-6.6-1.1-8.6-3.4s-3.1-5.5-3.1-9.7c0-4.3,1-7.6,3.1-10s5-3.5,8.8-3.5c1.2,0,2.5,0.1,3.7,0.4
		s2.2,0.6,2.9,0.9l-1.2,3.3c-0.9-0.3-1.8-0.6-2.8-0.9s-1.9-0.3-2.7-0.3c-5.2,0-7.8,3.3-7.8,10c0,3.2,0.6,5.6,1.9,7.3
		s3.2,2.5,5.7,2.5c2.1,0,4.3-0.5,6.6-1.4v3.4C206.8,52.5,204.6,52.9,202,52.9z"/>
	<path class="st0" d="M232.2,52.5V35.9c0-2.1-0.5-3.7-1.4-4.7s-2.4-1.5-4.5-1.5c-2.7,0-4.7,0.7-5.9,2.2s-1.9,3.9-1.9,7.2v13.4h-3.9
		V16h3.9v11c0,1.3-0.1,2.4-0.2,3.3h0.2c0.8-1.2,1.9-2.2,3.3-2.9s3-1.1,4.8-1.1c3.1,0,5.5,0.7,7.1,2.2s2.4,3.9,2.4,7.1v16.8H232.2z"
		/>
</g>
</svg>
