<?xml version="1.0" encoding="utf-8"?>
<!-- Generator: Adobe Illustrator 21.0.0, SVG Export Plug-In . SVG Version: 6.00 Build 0)  -->
<svg version="1.1" id="Layer_1" xmlns="http://www.w3.org/2000/svg" xmlns:xlink="http://www.w3.org/1999/xlink" x="0px" y="0px"
	 viewBox="0 0 400 400" style="enable-background:new 0 0 400 400;" xml:space="preserve">
<style type="text/css">
	.st0{fill:#FFFFFF;stroke:#FFFFFF;stroke-miterlimit:10;}
</style>
<path id="XMLID_4_" class="st0" d="M312.3,157.4c0,85.6-69.4,154.9-154.9,154.9S2.5,243,2.5,157.4S71.8,2.5,157.4,2.5
	S312.3,71.8,312.3,157.4z M157.4,35.7c-67.2,0-121.7,54.5-121.7,121.7s54.5,121.7,121.7,121.7s121.7-54.5,121.7-121.7
	S224.6,35.7,157.4,35.7z"/>
<path id="XMLID_1_" class="st0" d="M390,382l-8,8c-7.8,7.8-20.5,7.8-28.3,0L240.4,276.7c-7.8-7.8-7.8-20.5,0-28.3l8-8
	c7.8-7.8,20.5-7.8,28.3,0L390,353.7C397.8,361.5,397.8,374.2,390,382z"/>
<line id="XMLID_5_" class="st0" x1="270" y1="306.3" x2="306.3" y2="270"/>
<circle id="XMLID_8_" class="st0" cx="157.4" cy="157.4" r="56.6"/>
</svg>
